<?xml version="1.0" encoding="utf-8"?>
<!-- Generator: Adobe Illustrator 18.1.1, SVG Export Plug-In . SVG Version: 6.00 Build 0)  -->
<!DOCTYPE svg PUBLIC "-//W3C//DTD SVG 1.1//EN" "http://www.w3.org/Graphics/SVG/1.1/DTD/svg11.dtd">
<svg version="1.1" id="Layer_1" xmlns="http://www.w3.org/2000/svg" xmlns:xlink="http://www.w3.org/1999/xlink" x="0px" y="0px"
	 viewBox="0 0 960 460" enable-background="new 0 0 960 460" xml:space="preserve">
<!-- <g>
	<polygon opacity="0.55" fill="#F16724" enable-background="new    " points="79.8,146.6 127.3,60.4 225.6,58.8 276.3,142.8 
		228.8,228.9 130.6,231 	"/>
	<polygon fill="none" stroke="#FFFFFF" stroke-width="1.5" stroke-miterlimit="10" points="79.8,146.6 127.3,60.4 225.6,58.8 
		276.3,142.8 228.8,228.9 130.6,231 	"/>
</g>
<g>
	<polygon opacity="0.55" fill="#652F8F" enable-background="new    " points="252.1,138.8 304,152.2 318.2,204 280.7,242.1 
		228.8,228.9 214.6,177.5 	"/>
	<polygon fill="none" stroke="#FFFFFF" stroke-width="1.5" stroke-miterlimit="10" points="252.1,138.8 304,152.2 318.2,204 
		280.7,242.1 228.8,228.9 214.6,177.5 	"/>
</g>
<g>
	<polygon opacity="0.55" fill="#F8EB32" enable-background="new    " points="114.6,328.2 57.2,261.9 85.9,179.2 171.5,162.5 
		228.8,228.9 200.2,311.8 	"/>
	<polygon fill="none" stroke="#FFFFFF" stroke-width="1.5" stroke-miterlimit="10" points="114.6,328.2 57.2,261.9 85.9,179.2 
		171.5,162.5 228.8,228.9 200.2,311.8 	"/>
</g>
<polygon fill="#28A8E0" fill-opacity="0.55" stroke="#FFFFFF" stroke-width="1.5" stroke-miterlimit="10" points="347.5,182 
	374.6,250.3 328.8,307.7 255.9,297.4 228.8,228.9 274.7,171.5 "/>
<g>
	<polygon opacity="0.55" fill="#3BB34A" enable-background="new    " points="295.7,341.4 230.5,379.5 164.8,343.1 164.3,267.4 
		228.8,228.9 294.5,265.8 	"/>
	<polygon fill="none" stroke="#FFFFFF" stroke-width="1.5" stroke-miterlimit="10" points="295.7,341.4 230.5,379.5 164.8,343.1 
		164.3,267.4 228.8,228.9 294.5,265.8 	"/>
</g> -->
<g>
	<path fill="#231F20" d="M507.6,117.5h-29.2c-2.8,0-5.5-2.2-5.5-4.9c0-2.8,2.2-5.5,5.5-5.5h70.1c2.8,0,5.5,2.2,5.5,5.5
		c0,2.8-2.2,4.9-5.5,4.9h-29.2v85.5c0,3.4-2.8,5.5-5.5,5.5c-2.8,0-5.5-2.8-5.5-5.5v-85.6L507.6,117.5L507.6,117.5z"/>
	<path fill="#231F20" d="M570,107.4c0-2.8,2.2-5.5,5.5-5.5c3.4,0,5.5,2.8,5.5,5.5V146c4.9-8.3,12.7-14.4,25.4-14.4
		c18.2,0,28.6,12.1,28.6,29.8v41.4c0,3.4-2.2,5.5-5.5,5.5c-3.4,0-5.5-2.2-5.5-5.5v-38.6c0-13.8-7.7-22.7-20.4-22.7
		c-12.7,0-22.7,9.4-22.7,23.1v37.5c0,3.4-2.2,5.5-5.5,5.5c-3.4,0-5.5-2.2-5.5-5.5L570,107.4L570,107.4z"/>
	<path fill="#231F20" d="M658.9,137.8c0-2.8,2.2-5.5,5.5-5.5c3.4,0,5.5,2.2,5.5,5.5v13.8c5.5-12.1,16.5-19.9,25.9-19.9
		c3.4,0,5.5,2.2,5.5,5.5c0,2.8-2.2,4.9-4.9,5.5c-14.4,1.7-26.5,12.7-26.5,34.2v25.4c0,2.8-2.2,5.5-5.5,5.5c-3.4,0-5.5-2.2-5.5-5.5
		V137.8L658.9,137.8z"/>
	<path fill="#231F20" d="M746.7,209.5c-20.4,0-37-15.5-37-38.6v-0.6c0-21.6,14.9-38.6,35.8-38.6c22.1,0,34.8,18.2,34.8,37.5
		c0,2.8-2.2,4.9-4.9,4.9h-54.1c1.7,16.1,13.3,25.4,26.5,25.4c9.4,0,16.1-3.8,21.6-8.9c1.1-0.6,1.7-1.1,3.4-1.1
		c2.8,0,4.9,2.2,4.9,4.9c0,1.1-0.6,2.8-1.7,3.8C768.1,205.1,759.4,209.5,746.7,209.5z M768.7,166.6c-1.1-13.8-8.9-25.4-23.7-25.4
		c-13.3,0-22.7,11-24.3,25.4H768.7z"/>
	<path fill="#231F20" d="M794.1,185.9L794.1,185.9c0-16.1,13.3-24.3,32-24.3c9.4,0,16.5,1.1,23.1,3.4v-2.8
		c0-13.3-8.3-20.4-22.1-20.4c-7.7,0-13.8,1.7-19.3,4.4c-0.6,0.6-1.7,0.6-2.2,0.6c-2.8,0-4.9-2.2-4.9-4.9c0-2.2,1.7-3.8,2.8-4.4
		c7.2-3.4,14.9-4.9,24.3-4.9c10.4,0,18.8,2.8,24.3,8.3c4.9,4.9,7.7,12.1,7.7,21.6v40.5c0,3.4-2.2,5.5-5.5,5.5
		c-3.4,0-5.5-2.2-5.5-4.9v-6.6c-4.9,6.6-13.8,12.7-27.1,12.7C807.9,209.5,794.1,201.4,794.1,185.9z M848.8,180.4v-7.2
		c-5.5-1.7-12.7-3.4-22.1-3.4c-13.8,0-21.6,6.1-21.6,15.5v0.6c0,9.4,8.9,14.9,18.8,14.9C837.7,200.8,848.8,191.9,848.8,180.4z"/>
	<path fill="#231F20" d="M954.2,202.8c0,3.4-2.2,5.5-5.5,5.5c-3.4,0-5.5-2.2-5.5-5.5v-9.9c-6.1,8.9-14.9,16.5-28.6,16.5
		c-17.6,0-35.8-14.4-35.8-38.6v-0.6c0-24.3,17.6-38.6,35.8-38.6c13.8,0,22.7,7.7,28.6,16.1v-40.3c0-3.4,2.2-5.5,5.5-5.5
		c3.4,0,5.5,2.2,5.5,5.5V202.8z M890.2,170.3L890.2,170.3c0,17.6,12.1,29.2,26.5,29.2c13.8,0,27.1-11.6,27.1-28.6v-0.6
		c0-17.1-13.3-28.6-27.1-28.6C902.3,141.6,890.2,152.2,890.2,170.3z"/>
</g>
<g>
	<path fill="#808184" d="M498.3,260.8L498.3,260.8c0-12.1,8.9-22.1,21.6-22.1c6.6,0,11,2.2,15.5,5.5c0.6,0.6,1.1,1.1,1.1,2.2
		c0,1.1-1.1,2.2-2.2,2.2c-0.6,0-1.1-0.6-1.7-0.6c-3.4-2.8-7.2-4.9-12.1-4.9c-9.4,0-16.5,7.7-16.5,17.6l0,0c0,9.9,7.2,17.6,16.5,17.6
		c5.5,0,8.9-1.7,12.7-4.9c0.6-0.6,1.1-0.6,1.7-0.6c1.1,0,2.2,1.1,2.2,2.2c0,0.6-0.6,1.1-0.6,1.7c-4.4,3.8-8.9,6.1-16.1,6.1
		C507,282.4,498.3,272.9,498.3,260.8z"/>
	<path fill="#808184" d="M541.8,266.3L541.8,266.3c0-8.9,7.2-16.5,16.5-16.5s16.5,7.2,16.5,16.1l0,0c0,8.9-7.2,16.5-16.5,16.5
		C548.5,282.4,541.8,275.2,541.8,266.3z M569.5,266.3L569.5,266.3c0-6.6-4.9-12.1-11.6-12.1s-11.6,5.5-11.6,12.1l0,0
		c0,6.6,4.9,12.1,11.6,12.1C565.1,278.5,569.5,272.9,569.5,266.3z"/>
	<path fill="#808184" d="M582.7,252.6c0-1.1,1.1-2.2,2.2-2.2s2.2,1.1,2.2,2.2v3.4c2.2-3.4,5.5-6.1,10.4-6.1
		c7.7,0,12.1,4.9,12.1,12.7v17.6c0,1.1-1.1,2.2-2.2,2.2s-2.2-1.1-2.2-2.2v-16.1c0-6.1-3.4-9.4-8.9-9.4s-9.4,3.8-9.4,9.9v16.1
		c0,1.1-1.1,2.2-2.2,2.2s-2.2-1.1-2.2-2.2L582.7,252.6L582.7,252.6z"/>
	<path fill="#808184" d="M620.2,252.6c0-1.1,1.1-2.2,2.2-2.2c1.1,0,2.2,1.1,2.2,2.2v3.4c2.2-3.4,5.5-6.1,10.4-6.1
		c7.7,0,12.1,4.9,12.1,12.7v17.6c0,1.1-1.1,2.2-2.2,2.2c-1.1,0-2.2-1.1-2.2-2.2v-16.1c0-6.1-3.4-9.4-8.9-9.4c-5.5,0-9.4,3.8-9.4,9.9
		v16.1c0,1.1-1.1,2.2-2.2,2.2s-2.2-1.1-2.2-2.2V252.6z"/>
	<path fill="#808184" d="M671.5,282.4c-8.9,0-15.5-6.6-15.5-16.5l0,0c0-8.9,6.6-16.5,14.9-16.5c9.4,0,14.4,7.7,14.4,16.1
		c0,1.1-1.1,2.2-2.2,2.2h-22.7c0.6,6.6,5.5,10.4,11,10.4c3.8,0,6.6-1.7,8.9-3.8c0.6-0.6,0.6-0.6,1.1-0.6c1.1,0,2.2,1.1,2.2,2.2
		c0,0.6,0,1.1-0.6,1.7C680.4,280.7,676.5,282.4,671.5,282.4z M680.4,264.3c-0.6-5.5-3.8-10.4-9.9-10.4c-5.5,0-9.4,4.4-9.9,10.4
		H680.4z"/>
	<path fill="#808184" d="M691.4,266.3L691.4,266.3c0-8.9,7.2-16.5,16.1-16.5c4.9,0,8.9,2.2,11.6,4.4c0.6,0.6,0.6,1.1,0.6,1.7
		c0,1.1-1.1,2.2-2.2,2.2c-0.6,0-1.1,0-1.7-0.6c-2.2-2.2-4.9-3.8-8.9-3.8c-6.6,0-11,5.5-11,12.1l0,0c0,6.6,4.9,12.1,11.6,12.1
		c3.4,0,6.6-1.7,8.9-3.8c0.6-0.6,0.6-0.6,1.1-0.6c1.1,0,2.2,1.1,2.2,2.2c0,0.6,0,1.1-0.6,1.7c-2.8,2.8-6.6,4.9-11.6,4.9
		C698.6,282.4,691.4,275.2,691.4,266.3z"/>
	<path fill="#808184" d="M730.1,273.5v-18.8h-2.8c-1.1,0-2.2-1.1-2.2-2.2c0-1.1,1.1-2.2,2.2-2.2h2.8v-7.2c0-1.1,1.1-2.2,2.2-2.2
		c1.1,0,2.2,1.1,2.2,2.2v7.2h8.3c1.1,0,2.2,1.1,2.2,2.2c0,1.1-1.1,2.2-2.2,2.2h-8.3v18.2c0,3.8,2.2,4.9,5.5,4.9
		c1.7,0,2.8-0.6,2.8-0.6c1.1,0,2.2,1.1,2.2,2.2s-0.6,1.7-1.1,1.7c-1.1,0.6-2.8,1.1-4.4,1.1C733.4,282.4,730.1,279.7,730.1,273.5z"/>
	<path fill="#808184" d="M765.4,282.4c-8.9,0-15.5-6.6-15.5-16.5l0,0c0-8.9,6.6-16.5,14.9-16.5c9.4,0,14.4,7.7,14.4,16.1
		c0,1.1-1.1,2.2-2.2,2.2h-22.7c0.6,6.6,5.5,10.4,11,10.4c3.8,0,6.6-1.7,8.9-3.8c0.6-0.6,0.6-0.6,1.1-0.6c1.1,0,2.2,1.1,2.2,2.2
		c0,0.6,0,1.1-0.6,1.7C774.2,280.7,770.9,282.4,765.4,282.4z M774.7,264.3c-0.6-5.5-3.8-10.4-9.9-10.4c-5.5,0-9.4,4.4-9.9,10.4
		H774.7z"/>
	<path fill="#808184" d="M817.9,279.7c0,1.1-1.1,2.2-2.2,2.2c-1.1,0-2.2-1.1-2.2-2.2v-4.4c-2.8,3.8-6.1,7.2-12.1,7.2
		c-7.7,0-14.9-6.1-14.9-16.1l0,0c0-10.4,7.7-16.5,14.9-16.5c6.1,0,9.4,3.4,12.1,6.6v-17.1c0-1.1,1.1-2.2,2.2-2.2
		c1.1,0,2.2,1.1,2.2,2.2V279.7z M790.8,265.8L790.8,265.8c0,7.7,4.9,12.1,11,12.1c6.1,0,11.6-4.9,11.6-12.1l0,0
		c0-7.2-5.5-12.1-11.6-12.1C795.7,253.6,790.8,258.7,790.8,265.8z"/>
	<path fill="#808184" d="M498.3,321.5L498.3,321.5c0-12.1,8.9-22.1,21.6-22.1c6.6,0,11,2.2,15.5,5.5c0.6,0.6,1.1,1.1,1.1,2.2
		s-1.1,2.2-2.2,2.2c-0.6,0-1.1-0.6-1.7-0.6c-3.4-2.8-7.2-4.9-12.1-4.9c-9.4,0-16.5,7.7-16.5,17.6l0,0c0,9.9,7.2,17.6,16.5,17.6
		c5.5,0,8.9-1.7,12.7-4.9c0.6-0.6,1.1-0.6,1.7-0.6c1.1,0,2.2,1.1,2.2,2.2c0,0.6-0.6,1.1-0.6,1.7c-4.4,3.8-8.9,6.1-16.1,6.1
		C507,343.1,498.3,333.8,498.3,321.5z"/>
	<path fill="#808184" d="M541.8,327.2L541.8,327.2c0-8.9,7.2-16.5,16.5-16.5s16.5,7.2,16.5,16.1l0,0c0,8.9-7.2,16.5-16.5,16.5
		C548.5,343.1,541.8,335.9,541.8,327.2z M569.5,327.2L569.5,327.2c0-6.6-4.9-12.1-11.6-12.1s-11.6,5.5-11.6,12.1l0,0
		c0,6.6,4.9,12.1,11.6,12.1C565.1,339.4,569.5,333.8,569.5,327.2z"/>
	<path fill="#808184" d="M582.7,313.2c0-1.1,1.1-2.2,2.2-2.2s2.2,1.1,2.2,2.2v3.4c2.2-3.4,5.5-6.1,10.4-6.1
		c7.7,0,12.1,4.9,12.1,12.7v17.6c0,1.1-1.1,2.2-2.2,2.2s-2.2-1.1-2.2-2.2v-16.1c0-6.1-3.4-9.4-8.9-9.4s-9.4,3.8-9.4,9.9v16.1
		c0,1.1-1.1,2.2-2.2,2.2s-2.2-1.1-2.2-2.2L582.7,313.2L582.7,313.2z"/>
	<path fill="#808184" d="M621.9,334.2v-18.7h-2.8c-1.1,0-2.2-1.1-2.2-2.2s1.1-2.2,2.2-2.2h2.8V304c0-1.1,1.1-2.2,2.2-2.2
		c1.1,0,2.2,1.1,2.2,2.2v7.2h8.3c1.1,0,2.2,1.1,2.2,2.2s-1.1,2.2-2.2,2.2h-8.3v18.2c0,3.8,2.2,4.9,5.5,4.9c1.7,0,2.8-0.6,2.8-0.6
		c1.1,0,2.2,1.1,2.2,2.2s-0.6,1.7-1.1,1.7c-1.1,0.6-2.8,1.1-4.4,1.1C625.7,343.1,621.9,340.4,621.9,334.2z"/>
	<path fill="#808184" d="M657.7,343.1c-8.9,0-15.5-6.6-15.5-16.5l0,0c0-8.9,6.6-16.5,14.9-16.5c9.4,0,14.4,7.7,14.4,16.1
		c0,1.1-1.1,2.2-2.2,2.2h-22.7c0.6,6.6,5.5,10.4,11,10.4c3.8,0,6.6-1.7,8.9-3.8c0.6-0.6,0.6-0.6,1.1-0.6c1.1,0,2.2,1.1,2.2,2.2
		c0,0.6,0,1.1-0.6,1.7C666.6,341.4,662.8,343.1,657.7,343.1z M666.6,325c-0.6-5.5-3.8-10.4-9.9-10.4c-5.5,0-9.4,4.4-9.9,10.4H666.6z
		"/>
	<path fill="#808184" d="M679.8,313.2c0-1.1,1.1-2.2,2.2-2.2c1.1,0,2.2,1.1,2.2,2.2v3.4c2.2-3.4,5.5-6.1,10.4-6.1
		c7.7,0,12.1,4.9,12.1,12.7v17.6c0,1.1-1.1,2.2-2.2,2.2c-1.1,0-2.2-1.1-2.2-2.2v-16.1c0-6.1-3.4-9.4-8.9-9.4c-5.5,0-9.4,3.8-9.4,9.9
		v16.1c0,1.1-1.1,2.2-2.2,2.2c-1.1,0-2.2-1.1-2.2-2.2V313.2z"/>
	<path fill="#808184" d="M719,334.2v-18.7h-2.8c-1.1,0-2.2-1.1-2.2-2.2s1.1-2.2,2.2-2.2h2.8V304c0-1.1,1.1-2.2,2.2-2.2
		c1.1,0,2.2,1.1,2.2,2.2v7.2h8.3c1.1,0,2.2,1.1,2.2,2.2s-1.1,2.2-2.2,2.2h-8.3v18.2c0,3.8,2.2,4.9,5.5,4.9c1.7,0,2.8-0.6,2.8-0.6
		c1.1,0,2.2,1.1,2.2,2.2s-0.6,1.7-1.1,1.7c-1.1,0.6-2.8,1.1-4.4,1.1C722.3,343.1,719,340.4,719,334.2z"/>
</g>
<polygon fill="#FFFFFF" points="198.5,211.2 228.8,194.2 259.3,211.2 259.3,246.5 228.8,264.3 198.5,246.5 "/><!-- 
<circle fill="none" stroke="#231F20" stroke-width="1" stroke-miterlimit="10" cx="228.8" cy="228.9" r="225.7"/> -->
</svg>
